<svg xmlns="http://www.w3.org/2000/svg" xmlns:xlink="http://www.w3.org/1999/xlink" width="500" zoomAndPan="magnify" viewBox="0 0 375 374.999991" height="500" preserveAspectRatio="xMidYMid meet" version="1.0"><defs><clipPath id="2317ca82e7"><path d="M 123 122 L 252 122 L 252 261.671875 L 123 261.671875 Z M 123 122 " clip-rule="nonzero"/></clipPath><clipPath id="9ca4e6c967"><path d="M 117.574219 127 L 213 127 L 213 257 L 117.574219 257 Z M 117.574219 127 " clip-rule="nonzero"/></clipPath></defs><g clip-path="url(#2317ca82e7)"><path fill="#5eb23f" d="M 188.800781 261.671875 C 244.382812 237.351562 203.707031 200.382812 234.03125 155.449219 C 236.71875 176.988281 242.105469 200.363281 230.179688 223.148438 C 242.375 203.882812 248.285156 163.394531 230.988281 145.535156 C 226.480469 140.882812 221.226562 136.773438 215.316406 133.40625 C 183.707031 115.476562 144 125.007812 123.773438 154.429688 C 143.570312 123.515625 184.292969 113.171875 216.582031 131.511719 C 223.164062 135.238281 228.894531 139.886719 233.71875 145.195312 C 235.226562 146.84375 236.648438 148.558594 237.957031 150.34375 C 254.148438 171.839844 257.03125 201.742188 242.941406 226.648438 C 231.261719 247.265625 210.695312 259.640625 188.800781 261.671875 " fill-opacity="1" fill-rule="evenodd"/></g><g clip-path="url(#9ca4e6c967)"><path fill="#003c25" d="M 151.574219 137.761719 C 151.371094 138.753906 151.6875 139.75 152.140625 140.359375 C 152.542969 140.222656 153.085938 139.792969 153.402344 139.5 C 153.378906 138.847656 153.109375 138.800781 152.839844 138.28125 C 152.453125 137.582031 152.410156 137.71875 151.574219 137.761719 Z M 149.070312 139.816406 C 149.613281 140.085938 150.15625 140.085938 150.449219 139.5 C 150.875 138.011719 149.253906 137.582031 148.554688 138.574219 C 148.148438 139.183594 148.554688 139.546875 149.070312 139.816406 Z M 148.464844 148.691406 C 148.597656 148.148438 148.757812 148.578125 148.644531 147.335938 C 147.878906 147.089844 147.289062 147.203125 146.75 147.789062 C 145.914062 148.691406 146.59375 148.847656 146.320312 149.617188 C 145.644531 149.707031 145.734375 149.460938 144.992188 149.707031 C 144.472656 151.085938 145.644531 150.972656 146.230469 151.46875 C 146.457031 151.648438 146.546875 151.832031 146.75 151.988281 C 149.207031 151.628906 148.328125 149.234375 148.464844 148.691406 Z M 152.925781 146.410156 C 152.230469 146.207031 151.441406 145.734375 150.15625 146.457031 C 149.566406 146.75 149.5 148.332031 149.5 148.984375 L 149.546875 149.730469 L 150.71875 149.800781 C 151.144531 148.039062 150.964844 149.054688 152.046875 148.238281 C 152.429688 147.925781 152.386719 147.675781 152.613281 147.335938 C 152.972656 146.792969 152.949219 147.132812 152.925781 146.410156 Z M 152.429688 142.796875 C 152.429688 144.015625 152.386719 144.195312 152.90625 145.035156 L 158.609375 144.289062 C 159.332031 144.21875 160.910156 144.808594 160.910156 142.414062 C 160.910156 141.757812 160.277344 141.398438 159.488281 141.398438 C 158.160156 141.398438 156.648438 143.09375 155.207031 142.617188 C 154.4375 142.371094 155.226562 142.480469 154.101562 142.347656 L 154.011719 142.324219 L 153.851562 142.277344 C 154.167969 141.578125 154.4375 142.503906 154.4375 141.488281 C 154.4375 140.832031 153.671875 140.808594 153.0625 140.789062 C 152.386719 140.765625 151.800781 140.675781 151.238281 140.742188 C 150.539062 140.855469 150.71875 141.578125 151.144531 141.960938 C 151.53125 142.300781 152.160156 142.300781 152.429688 142.796875 Z M 145.960938 143 C 145.734375 143.949219 145.894531 144.378906 147.109375 145.214844 C 147.378906 145.417969 147.855469 145.484375 148.28125 145.371094 C 149.253906 145.125 149.164062 144.605469 149.183594 144.425781 L 150.425781 145.328125 C 151.621094 144.988281 152.117188 144.558594 151.484375 143.453125 L 150.402344 143.363281 C 149.996094 142.617188 149.882812 141.511719 148.644531 142.300781 C 147.765625 142.867188 147.289062 143 145.960938 143 Z M 137.28125 147 C 137.617188 148.308594 140.007812 148.871094 141.292969 148.238281 C 142.242188 147.789062 142.015625 147.222656 142.917969 146.953125 C 143.660156 146.75 143.300781 146.816406 143.820312 146.433594 C 144.113281 146.207031 144.609375 146.09375 144.855469 145.890625 C 144.832031 144.921875 144.699219 145.011719 144.066406 144.648438 C 144.203125 144.289062 144.179688 144.425781 144.089844 143.769531 C 142.441406 143.703125 143.230469 144.582031 142.601562 145.734375 L 141.113281 144.898438 C 140.480469 144.402344 140.347656 144.21875 139.558594 144.808594 C 138.835938 145.347656 137.574219 146.230469 137.28125 147 Z M 166.953125 216.730469 C 166.003906 216.1875 163.234375 215.78125 162.847656 218.222656 C 163.503906 218.335938 163.480469 218.128906 164.113281 218.402344 C 165.261719 218.851562 166.816406 218.378906 167.492188 217.882812 C 167.492188 217.429688 167.425781 217.003906 166.953125 216.730469 Z M 162.625 215.757812 C 162.105469 215.578125 161.789062 215.261719 161.226562 214.96875 C 160.730469 214.722656 160.144531 214.496094 159.691406 214.269531 C 155.609375 212.328125 155.90625 213.390625 154.4375 213.410156 L 154.4375 214.628906 C 156.535156 214.472656 156.917969 214.40625 159.242188 215.644531 C 160.570312 216.367188 160.03125 216.527344 160.863281 216.59375 L 161.15625 216.617188 C 161.316406 216.664062 162.511719 217.8125 162.625 215.757812 Z M 204.066406 161.40625 C 204.652344 161.269531 204.789062 161.089844 205.261719 161.746094 C 205.171875 162.128906 205.417969 161.925781 204.765625 162.082031 C 205.171875 164.25 205.285156 162.578125 205.375 163.910156 C 206.140625 164.070312 205.914062 163.890625 206.140625 164.703125 C 208.035156 164.972656 207.222656 165.355469 208.195312 165.355469 C 208.824219 165.355469 209.953125 164.839844 210.359375 164.566406 C 210.921875 164.203125 211.554688 163.414062 212.027344 163.234375 C 212.027344 162.082031 211.824219 161.496094 211.191406 160.839844 C 209.546875 159.148438 209.90625 160.410156 209.117188 160.410156 L 206.230469 160.410156 C 205.554688 160.410156 206.34375 159.914062 204.878906 159.734375 C 204.40625 160.367188 204.203125 160.320312 204.066406 161.40625 Z M 179.015625 146.386719 C 179.265625 147.855469 177.910156 147.992188 178.925781 149.234375 C 179.894531 149.164062 179.511719 148.691406 180.640625 148.578125 C 180.773438 148.804688 180.820312 148.804688 180.933594 149.054688 C 181.089844 149.4375 180.910156 149.347656 181.179688 149.617188 C 181.5625 150.023438 182.195312 149.570312 181.855469 150.703125 C 180.976562 150.609375 181.339844 150.09375 180.503906 150.09375 C 178.429688 150.09375 179.195312 153.433594 180.234375 153.433594 C 180.933594 153.433594 181.269531 153.1875 181.8125 152.960938 C 181.8125 152.394531 181.765625 152.394531 181.542969 152.011719 L 182.21875 152.011719 C 182.984375 154.382812 180.84375 153.863281 180.4375 154.992188 C 180.347656 155.261719 180.097656 155.464844 180.097656 155.828125 C 180.144531 161.609375 180.324219 158.152344 180.84375 160.367188 C 180.957031 160.863281 181.066406 161.722656 181.113281 162.332031 C 181.835938 162.285156 182.039062 161.992188 182.644531 162.195312 C 182.625 162.578125 182.21875 162.714844 182.21875 163.4375 C 182.21875 164.972656 182.375 165.242188 183.34375 166.371094 C 183.636719 166.710938 183.953125 166.871094 184.089844 167.210938 C 184.425781 168.179688 183.839844 168.15625 185.195312 168.472656 C 187.5625 169.039062 187.515625 171.003906 189.386719 169.578125 C 189.410156 168.203125 189.859375 167.820312 189.90625 166.734375 C 189.953125 165.402344 190.175781 164.925781 191.011719 164.386719 C 191.011719 163.527344 190.945312 162.785156 191.167969 162.039062 C 191.507812 161 191.6875 161.632812 191.980469 160.367188 C 193.378906 160.09375 194.257812 160.140625 195.316406 159.351562 C 196.625 158.355469 197.167969 157.023438 197.640625 156.664062 C 197.664062 156.640625 197.910156 156.480469 197.957031 156.460938 C 198.632812 156.050781 199.558594 155.984375 200.460938 155.78125 C 203.933594 155.082031 201.902344 154.335938 204 154.335938 C 204.226562 153.910156 204.496094 153.660156 204.722656 153.253906 C 204.992188 152.757812 204.925781 152.371094 205.351562 152.054688 L 204.945312 150.816406 C 204.789062 149.910156 204.699219 150.542969 204.335938 149.886719 C 204.203125 149.371094 204.542969 148.238281 204.496094 147.945312 C 204.382812 147.316406 204.132812 148.015625 204.132812 147.269531 C 204.132812 146.726562 204.316406 146.863281 204.40625 146.773438 C 204.609375 146.546875 204.675781 146.523438 204.652344 146.546875 C 204.765625 146.410156 204.628906 146.570312 204.765625 146.34375 C 204.945312 146.050781 204.832031 146.140625 205.082031 145.847656 C 206.390625 144.128906 205.148438 144.425781 204.945312 143.339844 C 205.578125 143.40625 205.441406 143.835938 206.117188 144.085938 C 206.570312 143.632812 206.707031 143.519531 206.636719 142.664062 C 204.699219 142.210938 205.78125 142.371094 204.628906 141.375 C 204.5625 141.332031 202.285156 139.773438 203.730469 139.773438 C 204.316406 139.773438 204.519531 140.15625 205.058594 139.773438 C 205.578125 139.117188 204.203125 138.460938 203.953125 138.257812 C 203.457031 137.898438 202.738281 137.515625 202.738281 136.746094 C 202.738281 134.601562 204.519531 133.992188 204.542969 132.34375 C 198.160156 130.332031 200.414062 131.980469 199.21875 132.070312 L 199.261719 130.828125 C 197.414062 130.195312 198.382812 130.558594 196.941406 131.167969 C 196.625 130.761719 196.898438 130.898438 196.648438 130.421875 C 196.46875 130.0625 196.445312 130.195312 196.265625 129.902344 C 196.105469 129.679688 196.0625 129.429688 195.949219 129.292969 C 195.746094 129.023438 195.589844 129.070312 195.453125 128.84375 L 205.035156 131.734375 C 199.984375 129.769531 194.664062 128.414062 189.117188 127.757812 C 189.140625 127.78125 189.164062 127.78125 189.164062 127.78125 C 188.578125 129.023438 187.359375 128.03125 186.796875 128.03125 C 185.757812 128.03125 186.546875 128.324219 185.375 128.457031 C 183.253906 128.730469 181.15625 128.683594 179.0625 128.546875 C 177.933594 128.480469 177.257812 129 176.085938 128.820312 C 175.273438 128.683594 174.617188 128.347656 173.695312 128.457031 C 171.214844 128.796875 169.09375 129.316406 166.660156 129.722656 C 164.269531 130.128906 162.667969 131.371094 160.121094 131.371094 C 159.648438 131.890625 160.007812 132.003906 159.082031 132.070312 C 158.429688 132.140625 158.089844 132.25 157.886719 132.792969 C 158.203125 133.449219 158.429688 133.042969 158.675781 133.699219 C 157.503906 133.722656 158.089844 133.40625 157.390625 133.40625 L 156.332031 133.40625 C 156.039062 133.585938 154.304688 135.234375 154.03125 135.503906 C 153.535156 136.046875 153.738281 136.363281 154.054688 137.0625 C 154.820312 138.710938 155.207031 138.257812 156.128906 137.875 C 156.601562 138.417969 156.492188 138.214844 156.46875 139.410156 C 156.0625 139.703125 155.519531 140.019531 155.160156 140.425781 C 155.183594 140.449219 155.296875 140.609375 155.339844 140.652344 C 156.175781 141.578125 159.285156 140.742188 159.871094 140.199219 C 160.550781 140.515625 160.480469 140.695312 161.40625 140.382812 C 163.570312 139.589844 162.351562 139.277344 163.164062 137.785156 C 163.660156 136.902344 163.726562 137.085938 164.472656 136.925781 C 165.304688 136.722656 165.734375 134.308594 167.675781 133.359375 C 168.871094 132.792969 169.273438 132.410156 170.3125 131.550781 C 171.101562 130.917969 171.011719 131.234375 171.035156 130.015625 C 171.6875 129.972656 172.25 130.0625 173.0625 129.8125 C 173.582031 129.65625 174.371094 129.363281 174.980469 129.65625 C 174.957031 130.195312 175.023438 129.972656 174.167969 130.265625 C 173.152344 130.601562 172.410156 131.144531 171.417969 131.4375 L 171.441406 132.386719 C 171.9375 132.410156 172.230469 132.457031 172.476562 132.792969 C 172.230469 133.335938 172.136719 132.816406 171.710938 133.699219 C 169.816406 133.699219 169.636719 134.488281 168.171875 134.917969 C 167.585938 135.097656 167.179688 134.847656 167.179688 135.4375 C 167.179688 137.898438 169.5 136.25 171.417969 136.859375 C 170.898438 138.238281 169.09375 137.199219 168.304688 137.402344 C 167.988281 137.492188 167.808594 137.695312 167.585938 137.851562 C 167.652344 139.140625 167.96875 138.554688 168.578125 138.847656 C 168.9375 139.003906 169.050781 139.679688 169.253906 140.042969 C 170.945312 139.816406 172.613281 139.570312 174.324219 139.570312 C 175.429688 139.570312 177.097656 141.417969 177.484375 142.253906 C 177.707031 142.75 177.574219 142.457031 177.84375 142.820312 C 178.136719 143.25 178.949219 146.027344 179.015625 146.386719 Z M 160.820312 152.554688 C 161.472656 153.050781 161.8125 154.019531 161.8125 155.035156 C 162.464844 155.035156 163.503906 155.105469 163.503906 155.738281 C 163.050781 156.144531 162.039062 155.78125 161.339844 156.050781 C 160.820312 156.390625 160.59375 158.152344 162.082031 158.039062 C 163.433594 157.925781 163.503906 156.730469 164.425781 156.796875 C 164.5625 159.171875 163.839844 158.039062 163.210938 159.960938 C 163.097656 160.320312 163.164062 160.546875 163.097656 161 C 160.953125 161.113281 160.121094 161.203125 160.121094 163.03125 C 162.082031 163.664062 161.453125 163.210938 163.300781 162.738281 C 165.601562 164.519531 163.773438 164.769531 167.605469 166.488281 C 168.464844 166.871094 168.777344 167.1875 169.566406 166.710938 C 169.34375 165.085938 167.785156 165.109375 167.695312 164.296875 C 168.871094 164.386719 169.636719 165.199219 170.808594 165.46875 C 171.621094 163.144531 170.964844 163.101562 170.199219 162.195312 C 169.003906 160.796875 168.734375 160.953125 168.800781 159.054688 C 170.46875 159.328125 169.90625 161.472656 171.710938 161.425781 C 173.019531 161.40625 173.582031 158.332031 173.535156 158.242188 C 173.199219 157.453125 172.859375 157.90625 172.296875 157.453125 L 171.191406 156.460938 C 169.09375 154.699219 169.207031 155.984375 169.183594 154.335938 C 169.546875 154.316406 169.613281 154.292969 169.792969 154.179688 C 169.792969 154.089844 169.433594 151.558594 169.253906 151.855469 C 169.230469 151.898438 169.140625 151.808594 169.070312 151.761719 C 168.375 151.378906 168.710938 151.539062 168.261719 151.109375 C 167.652344 150.566406 167.652344 151.0625 167.042969 150.5 C 165.9375 149.460938 166.523438 149.007812 164.71875 149.371094 C 164.519531 149.074219 164.316406 148.917969 164.042969 148.625 C 163.683594 148.195312 163.277344 147.292969 163.007812 146.75 C 162.667969 146.070312 162.78125 146.683594 162.804688 145.777344 C 160.886719 145.304688 162.601562 145.441406 159.488281 145.441406 C 158.925781 145.441406 159.308594 145.6875 158.292969 145.734375 C 158.023438 145.757812 157.980469 145.710938 157.730469 145.800781 C 157.390625 145.914062 157.820312 145.871094 157.210938 146.117188 C 155.949219 144.511719 153.695312 147.359375 153.109375 148.648438 C 152.925781 148.984375 152.613281 150.09375 152.453125 150.363281 C 153.222656 150.972656 153.3125 150.542969 153.941406 151.445312 C 153.46875 152.238281 153.492188 151.742188 153.152344 152.980469 C 154.910156 153.386719 157.460938 153.410156 159.355469 153.1875 C 160.503906 153.027344 160.144531 152.824219 160.820312 152.554688 Z M 149.929688 175.519531 C 151.214844 175.972656 152.363281 176.625 153.492188 177.347656 C 154.550781 178.027344 155.429688 177.417969 156.128906 178.226562 C 156.511719 179.109375 155.5 181.546875 156.917969 182.316406 L 158.046875 182.972656 C 159.648438 182.179688 158.292969 180.984375 158.292969 179.742188 L 158.496094 178.5 C 158.722656 177.777344 158.40625 178.183594 159.105469 177.914062 C 159.960938 177.617188 159.691406 177.503906 160.097656 176.695312 C 160.527344 175.859375 160.4375 176.015625 160.234375 174.953125 C 159.894531 173.058594 158.722656 172.652344 159.355469 171.859375 C 159.960938 171.09375 159.917969 171.523438 159.894531 170.144531 C 159.894531 169.398438 159.917969 168.65625 159.894531 167.910156 C 159.894531 166.078125 159.265625 166.441406 163.953125 166.488281 C 164.269531 166.960938 165.148438 167.910156 165.53125 168.179688 C 166.074219 168.519531 166.230469 168.292969 166.5 168.925781 C 167.289062 170.730469 166.253906 171.703125 166.1875 172.378906 C 166.660156 172.378906 167.019531 172.222656 167.3125 172.3125 C 168.148438 172.539062 168.101562 173.328125 169.230469 172.128906 C 170.222656 171.09375 169.5 170.710938 170.085938 169.988281 C 170.875 169.015625 171.550781 170.664062 171.800781 171.230469 C 172.183594 172.019531 172.636719 172.671875 172.949219 173.507812 C 172.996094 173.621094 173.039062 173.734375 173.085938 173.894531 C 173.199219 174.164062 173.265625 174.1875 173.3125 174.34375 C 173.558594 175.203125 172.363281 175.203125 173.875 176.378906 C 174.347656 176.738281 174.597656 177.167969 174.980469 177.617188 L 176.625 177.710938 L 177.1875 178.972656 C 177.234375 179.109375 177.300781 179.335938 177.394531 179.449219 C 177.84375 180.035156 177.347656 179.472656 177.753906 179.71875 C 178.046875 179.902344 177.933594 179.765625 178.113281 180.011719 C 178.789062 180.871094 178.496094 182.335938 178.496094 183.558594 C 178.496094 184.324219 178 183.941406 178.113281 185.160156 C 178.859375 185.429688 178.789062 185.386719 179.738281 185.410156 C 180.007812 186.066406 179.984375 185.636719 180.121094 186.585938 C 180.210938 187.238281 180.367188 187.261719 180.730469 187.691406 C 181.316406 188.390625 181.226562 189.496094 180.097656 189.25 C 178.339844 188.863281 178.746094 187.917969 174.957031 187.917969 C 175.136719 187.261719 175.5 186.902344 175.746094 186.289062 C 176.0625 185.523438 176.804688 184.210938 176.738281 183.511719 C 175.476562 183.242188 175.410156 183.875 175.296875 184.394531 C 174.933594 184.4375 172.566406 184.734375 172.363281 184.867188 C 172.523438 185.070312 172.726562 185.09375 173.039062 185.09375 L 173.019531 186.3125 C 171.148438 186.3125 171.6875 186.289062 170.875 185.296875 C 170.3125 184.597656 169.207031 185.003906 168.464844 185.320312 C 167.269531 185.792969 167.246094 185.75 166.660156 186.808594 C 166.164062 187.691406 165.328125 187.78125 165.261719 188.75 C 166.390625 188.640625 166.230469 187.554688 167.585938 186.675781 C 168.125 186.3125 169.433594 185.476562 170.15625 185.75 C 171.574219 186.265625 169.546875 187.238281 170.988281 188.480469 C 171.304688 188.730469 171.734375 188.796875 172.070312 188.976562 C 173.085938 189.429688 173.695312 189.269531 174.753906 189.042969 C 174.753906 190.355469 174.800781 190.128906 174.101562 190.828125 C 173.558594 191.328125 173.3125 191.441406 172.476562 191.574219 C 171.734375 191.6875 171.621094 192.09375 171.035156 192.5 C 170.3125 192.996094 170.3125 192.972656 169.253906 192.972656 C 169.027344 191.710938 169.679688 192.34375 169.679688 191.394531 C 168.328125 191.304688 169.050781 191.734375 167.945312 192.027344 C 167.335938 192.183594 167.042969 192.230469 166.589844 192.636719 L 165.578125 193.582031 C 165.328125 193.992188 165.554688 194.714844 165.554688 195.300781 C 164.808594 195.550781 164.113281 195.796875 163.503906 196.273438 C 162.625 196.925781 162.757812 197.152344 162.285156 198.214844 C 161.96875 198.9375 161.652344 199.546875 161.382812 200.472656 C 160.660156 202.933594 160.886719 202.121094 159.601562 203.40625 C 158.878906 204.128906 157.574219 204.71875 157.054688 205.597656 C 155.996094 207.449219 158.113281 208.171875 158.089844 211.175781 L 158.070312 211.695312 C 157.6875 211.695312 157.28125 211.695312 156.988281 211.582031 C 156.46875 211.378906 155.90625 209.910156 155.703125 209.324219 C 154.890625 207.132812 154.890625 206.660156 150.628906 207.179688 L 150.449219 207.945312 C 148.914062 208.171875 148.890625 207.335938 147.539062 207.335938 C 146.792969 207.335938 145.148438 208.691406 145.148438 209.347656 C 145.148438 213.796875 144.765625 212.597656 146.050781 215.035156 C 146.390625 215.667969 146.660156 216.390625 147.402344 216.574219 C 149.050781 216.957031 150.265625 215.964844 150.515625 214.3125 C 152.003906 214.3125 151.734375 214.15625 152.746094 214.765625 C 152.679688 216.03125 152.320312 216.210938 152.320312 218.605469 C 153.128906 219.101562 154.460938 219.191406 155.40625 219.597656 C 156.535156 220.097656 156.175781 221.652344 156.175781 223.144531 C 156.355469 223.460938 156.785156 223.84375 157.03125 224.023438 C 157.59375 224.5 157.640625 224.339844 158.339844 224.273438 C 160.527344 224.023438 159.601562 224.589844 161.066406 224.949219 C 161.652344 224.589844 161.878906 223.890625 162.738281 223.503906 C 163.097656 223.371094 163.546875 223.257812 163.929688 223.121094 C 165.285156 222.625 163.34375 221.429688 167.382812 223.390625 L 168.484375 223.980469 C 169.75 224.566406 172.003906 223.777344 172.816406 224.273438 C 173.332031 224.589844 172.972656 224.679688 173.378906 225.019531 C 173.695312 225.242188 174.460938 225.355469 175.160156 225.875 C 175.679688 226.261719 177.097656 227.546875 177.484375 227.636719 C 179.355469 228.089844 181.382812 227.320312 182.78125 230.191406 C 183.839844 232.425781 182.351562 231.769531 184.921875 232.265625 C 185.464844 232.359375 185.78125 232.492188 186.34375 232.671875 C 188.488281 233.328125 188.125 233.757812 189.679688 233.53125 C 190.898438 233.351562 193.921875 234.976562 195.046875 235.382812 C 195.046875 238.027344 194.777344 237.621094 193.246094 239.066406 C 192.679688 239.582031 192.046875 239.875 191.800781 240.398438 C 191.644531 240.644531 191.417969 242.066406 191.238281 242.585938 C 190.832031 243.738281 189.976562 245.160156 188.960938 245.816406 C 188.417969 246.175781 187 245.703125 184.699219 247.214844 C 184.066406 247.644531 184.023438 248.75 182.195312 250.21875 C 181.855469 250.492188 181.675781 250.511719 181.429688 250.785156 C 180.933594 251.328125 181.40625 251.214844 180.570312 251.394531 C 177.886719 251.914062 178.949219 252.839844 176.828125 253.109375 C 176.175781 253.199219 175.117188 253.449219 174.664062 253.71875 C 173.535156 254.421875 172.996094 255.414062 172.027344 255.953125 C 171.777344 256.089844 172.003906 255.953125 171.777344 256.113281 C 171.621094 256.226562 171.167969 256.589844 170.175781 256.089844 C 169.546875 255.796875 168.800781 256.023438 168.082031 255.84375 C 168.011719 254.734375 167.5625 255.773438 168.011719 254.714844 C 168.261719 254.105469 168.261719 253.832031 167.878906 253.425781 C 166.863281 252.367188 166.886719 252.367188 167.472656 250.988281 C 168.148438 249.359375 167.199219 249.382812 167.605469 248.253906 C 167.742188 247.9375 167.742188 248.210938 167.785156 247.621094 L 167.855469 243.804688 C 167.765625 243.332031 167.878906 243.761719 167.628906 243.421875 C 167.109375 242.746094 167.335938 242.722656 166.433594 242.359375 C 163.59375 241.1875 163.390625 240.621094 161.675781 238.320312 C 161.429688 237.980469 161.316406 237.734375 161.089844 237.460938 C 157.550781 232.988281 159.265625 235.269531 158.925781 232.539062 C 158.878906 232.042969 158.878906 231.542969 158.902344 231.027344 C 159.46875 230.527344 160.910156 229.105469 160.910156 228.269531 C 160.910156 227.457031 160.1875 225.765625 159.355469 225.765625 C 156.851562 225.765625 158.25 226.417969 155.8125 224.996094 C 154.394531 224.136719 153.71875 221.902344 152.207031 221.359375 C 151.664062 221.179688 151.664062 221.179688 151.191406 220.929688 C 150.648438 220.636719 150.492188 220.796875 150.085938 220.613281 C 149.703125 220.433594 149.816406 220.230469 149.296875 219.960938 C 148.710938 219.621094 148.890625 219.800781 148.441406 219.351562 C 147.855469 218.742188 146.996094 218.921875 146.207031 218.851562 C 145.488281 218.785156 145.011719 218.265625 144.3125 217.972656 C 142.308594 217.113281 140.390625 215.984375 139.78125 213.816406 C 139.375 212.351562 138.316406 211.492188 137.503906 210.316406 L 134.460938 205.464844 C 134.121094 205.011719 134.414062 205.257812 134.011719 205.144531 C 133.851562 205.621094 133.898438 205.6875 134.167969 206.027344 C 134.84375 206.90625 134.257812 206.90625 134.820312 207.359375 L 135.429688 208.308594 C 135.632812 208.78125 135.859375 209.144531 136.175781 209.660156 C 136.648438 210.429688 138.226562 211.289062 137.03125 212.238281 C 135.835938 212.078125 134.910156 209.550781 134.28125 208.667969 C 133.808594 208.035156 133.515625 207.3125 133.175781 206.636719 C 132.542969 205.394531 132.25 203.089844 131.125 202.234375 C 129.90625 201.351562 127.875 197.015625 127.875 195.933594 C 127.875 194.285156 127.671875 192.636719 128.035156 190.964844 C 128.148438 190.378906 128.394531 190.46875 128.082031 189.789062 C 127.539062 188.660156 128.304688 188.527344 127.289062 187.285156 C 125.871094 185.546875 127.109375 184.980469 126.300781 183.421875 C 126.09375 183.039062 126.003906 182.835938 125.644531 182.566406 C 125.011719 182.089844 126.589844 180.328125 124.246094 180.328125 C 124.246094 179.425781 123.683594 178.433594 123.570312 177.484375 C 123.503906 176.964844 123.660156 177.144531 123.390625 176.738281 L 122.621094 175.632812 C 122.105469 175.15625 121.945312 175.40625 121.585938 175.699219 C 121.042969 176.152344 121.292969 175.835938 120.84375 176.039062 C 120.390625 176.21875 120.234375 176.894531 120.074219 177.347656 C 119.601562 178.769531 120.300781 179.921875 118.789062 180.304688 C 118.339844 179.515625 118.859375 178.816406 118.40625 178.339844 C 118.136719 179.808594 117.84375 179.019531 117.617188 180.035156 C 118.859375 173.554688 121.066406 167.410156 124.089844 161.746094 C 124 161.96875 123.976562 162.148438 124 162.261719 C 124.472656 162.558594 125.011719 161.992188 125.578125 161.8125 C 126.320312 161.585938 126.816406 161.652344 127.71875 161.609375 C 127.921875 161.269531 127.945312 161.066406 128.148438 160.726562 C 128.351562 160.390625 128.597656 160.1875 128.800781 159.9375 C 129.726562 158.898438 129.90625 159.191406 131.125 159.191406 C 131.84375 159.191406 132.949219 158.355469 133.625 158.332031 C 134.144531 158.332031 135.183594 158.605469 135.722656 158.851562 C 136.128906 159.011719 136.0625 158.96875 136.308594 159.191406 L 136.195312 160.253906 C 136.46875 160.390625 137.480469 159.914062 138.609375 159.914062 C 139.152344 159.914062 139.039062 160.367188 139.445312 160.636719 C 139.625 160.773438 139.648438 160.75 139.894531 160.796875 C 139.917969 159.78125 140.121094 159.894531 139.535156 159.238281 C 139.015625 158.648438 139.308594 158.785156 138.472656 158.785156 C 137.933594 158.785156 138.113281 159.53125 137.210938 158.535156 C 136.46875 157.703125 136.582031 158.242188 135.746094 157.8125 C 135.589844 156.980469 136.039062 156.6875 136.691406 156.503906 C 137.664062 156.257812 137.460938 156.347656 138.046875 155.691406 C 137.257812 155.308594 137.144531 155.984375 136.039062 155.757812 C 135.722656 155.332031 136.039062 155.738281 135.882812 155.398438 L 135.296875 154.40625 C 134.957031 154.902344 134.753906 154.832031 134.304688 155.308594 C 133.898438 155.757812 133.738281 155.851562 132.949219 155.691406 C 132.882812 154.089844 134.28125 151.671875 135.386719 150.476562 C 135.8125 150.023438 136.984375 149.886719 137.683594 149.886719 C 138.339844 149.886719 139.355469 150.746094 139.691406 151.039062 C 140.050781 151.332031 140.234375 151.539062 140.546875 151.785156 L 140.976562 152.148438 C 141.316406 152.507812 140.863281 152.394531 141.496094 152.507812 C 141.519531 152.484375 141.542969 152.417969 141.542969 152.441406 C 141.609375 152.6875 141.609375 152.28125 141.609375 152.238281 C 141.902344 151.355469 141.96875 150.453125 142.375 149.59375 C 142.714844 148.941406 144.359375 147.5625 144.359375 149.121094 C 144.359375 149.707031 143.953125 150.113281 143.433594 150.25 C 143.433594 151.0625 143.390625 152.011719 143.433594 152.800781 C 143.503906 154.472656 145.261719 153.34375 144.765625 155.082031 C 144.652344 155.511719 144.382812 155.601562 144.066406 155.828125 C 144.425781 157.679688 143.546875 157.183594 142.734375 157.453125 L 142.464844 157.566406 L 142.375 157.609375 L 142.21875 157.703125 L 142.128906 157.746094 C 142.128906 157.746094 142.082031 157.769531 142.058594 157.792969 C 142.21875 158.132812 142.757812 158.402344 143.074219 158.71875 L 144.652344 158.695312 C 145.148438 158.175781 145.464844 157.949219 145.800781 157.113281 C 146.140625 156.277344 146.09375 155.851562 146.726562 155.171875 C 147.988281 155.171875 147.179688 155.511719 147.945312 155.757812 C 148.328125 155.757812 149.027344 155.804688 148.777344 155.242188 C 148.6875 155.015625 147.878906 154.8125 147.878906 154.246094 C 147.878906 151.855469 148.351562 152.417969 148.777344 151.671875 C 149.207031 150.925781 148.734375 151.109375 150.042969 151.109375 C 150.582031 151.109375 150.921875 152.777344 150.921875 153.320312 C 150.921875 154.335938 150.582031 153.796875 151.144531 154.699219 C 151.507812 155.285156 151.394531 155.691406 151.621094 156.234375 C 152.117188 156.078125 152.339844 155.375 152.476562 154.855469 C 152.566406 154.945312 152.613281 154.96875 152.636719 154.96875 C 152.636719 154.992188 152.636719 155.035156 152.703125 155.148438 C 152.746094 155.261719 152.769531 155.421875 152.816406 155.535156 C 153.222656 155.488281 153.109375 155.398438 153.425781 155.554688 C 153.425781 156.277344 152.949219 157.25 153.265625 157.972656 C 153.695312 158.109375 153.785156 158.019531 154.144531 157.835938 C 154.234375 157.363281 154.210938 156.910156 154.417969 156.503906 C 154.640625 156.007812 154.933594 155.941406 155.160156 155.554688 C 155.386719 154.632812 154.324219 152.871094 158.023438 154.382812 C 158.046875 155.015625 157.886719 155.667969 157.886719 156.210938 C 157.886719 157.859375 158.453125 157.925781 157.167969 159.148438 C 156.761719 159.507812 156.851562 159.734375 156.289062 160.300781 C 156.355469 160.796875 156.445312 160.660156 156.421875 161.042969 C 156.378906 161.449219 156.242188 161.359375 156.175781 161.855469 C 156.828125 162.691406 158.179688 163.394531 158 164.703125 C 157.191406 165.132812 157.03125 164.476562 155.925781 164.363281 C 155.703125 165.265625 155.792969 165.042969 154.753906 165.175781 C 154.101562 165.265625 153.46875 164.925781 153.378906 164.410156 C 153.222656 163.640625 153.941406 163.59375 153.941406 162.917969 C 153.941406 162.398438 153.875 162.105469 153.582031 161.878906 C 152.925781 162.511719 154.101562 162.917969 151.753906 164.5 C 149.726562 165.878906 151.101562 166.394531 149.703125 166.914062 C 148.101562 167.523438 149.050781 167.296875 147.808594 169.511719 C 147.179688 170.664062 146.636719 171.363281 147.402344 172.921875 C 148.171875 173.351562 148.035156 172.652344 148.304688 173.710938 C 148.574219 174.886719 148.800781 175.15625 149.929688 175.519531 " fill-opacity="1" fill-rule="evenodd"/></g></svg>